_states
version=1
nRows=38
nColumns=17
inDegrees=yes

# SIMM Motion File Header:
name _states
datacolumns 17
datarows 38
otherdata 1
range 0.14877386 0.18507034
endheader
time	/jointset/r_shoulder/r_shoulder_elev/value	/jointset/r_shoulder/r_shoulder_elev/speed	/jointset/r_elbow/r_elbow_flex/value	/jointset/r_elbow/r_elbow_flex/speed	/forceset/TRIlong/activation	/forceset/TRIlong/fiber_length	/forceset/TRIlat/activation	/forceset/TRIlat/fiber_length	/forceset/TRImed/activation	/forceset/TRImed/fiber_length	/forceset/BIClong/activation	/forceset/BIClong/fiber_length	/forceset/BICshort/activation	/forceset/BICshort/fiber_length	/forceset/BRA/activation	/forceset/BRA/fiber_length
      0.14877386	     -5.48937220	    -49.59353369	     22.03414782	    238.23553943	      0.01537325	      0.14164142	      0.01738966	      0.07891843	      0.01722336	      0.07395084	      0.18488183	      0.14388248	      0.03044375	      0.14302922	      0.01564527	      0.08818513
      0.14994826	     -5.54752448	    -49.43811213	     22.31413161	    238.57073970	      0.01529160	      0.14172070	      0.01731977	      0.07903445	      0.01715168	      0.07406997	      0.18475014	      0.14380547	      0.03038875	      0.14294097	      0.01556305	      0.08812121
      0.15086445	     -5.59276314	    -49.31546999	     22.53282496	    238.82511351	      0.01522878	      0.14178273	      0.01726622	      0.07912510	      0.01709673	      0.07415619	      0.18464685	      0.14374474	      0.03034575	      0.14287152	      0.01549978	      0.08807133
      0.15178064	     -5.63788765	    -49.18843517	     22.75174490	    239.06391336	      0.01516672	      0.14184492	      0.01721359	      0.07921583	      0.01704266	      0.07424850	      0.18454369	      0.14368344	      0.03030275	      0.14280155	      0.01543726	      0.08802144
      0.15294639	     -5.69513298	    -49.02405998	     23.03060289	    239.35579926	      0.01508884	      0.14192426	      0.01714791	      0.07933140	      0.01697513	      0.07436065	      0.18441261	      0.14360461	      0.03024803	      0.14271175	      0.01535880	      0.08795796
      0.15388349	     -5.74101000	    -48.88682256	     23.25500820	    239.57225682	      0.01502710	      0.14198822	      0.01709615	      0.07942440	      0.01692185	      0.07445765	      0.18430738	      0.14354057	      0.03020403	      0.14263895	      0.01529658	      0.08790693
      0.15482060	     -5.78675741	    -48.74829466	     23.47961206	    239.78203908	      0.01496613	      0.14205232	      0.01704531	      0.07951749	      0.01686947	      0.07454668	      0.18420228	      0.14347593	      0.03016004	      0.14256560	      0.01523512	      0.08785589
      0.15575771	     -5.83237306	    -48.60495466	     23.70440544	    239.97478549	      0.01490590	      0.14211657	      0.01699536	      0.07961064	      0.01681796	      0.07464191	      0.18409730	      0.14341069	      0.03011603	      0.14249171	      0.01517441	      0.08780486
      0.15669482	     -5.87785310	    -48.45937243	     23.92937429	    240.15801712	      0.01484642	      0.14218096	      0.01694631	      0.07970386	      0.01676732	      0.07473264	      0.18399244	      0.14334485	      0.03007203	      0.14241728	      0.01511443	      0.08775383
      0.15785173	     -5.93380963	    -48.27347400	     24.20733659	    240.36203066	      0.01477400	      0.14226064	      0.01688696	      0.07981903	      0.01670599	      0.07485146	      0.18386315	      0.14326276	      0.03001770	      0.14232464	      0.01504139	      0.08769085
      0.15873609	     -5.97643749	    -48.12959282	     24.41997013	    240.50970497	      0.01471938	      0.14232169	      0.01684249	      0.07990713	      0.01665998	      0.07493476	      0.18376452	      0.14319939	      0.02997617	      0.14225328	      0.01498630	      0.08764272
      0.15962046	     -6.01893618	    -47.98098522	     24.63272745	    240.64081957	      0.01466539	      0.14238285	      0.01679889	      0.07999527	      0.01661479	      0.07502434	      0.18366695	      0.14313550	      0.02993476	      0.14218144	      0.01493184	      0.08759461
      0.16079625	     -6.07523396	    -47.77976388	     24.91576707	    240.80027299	      0.01459459	      0.14246433	      0.01674224	      0.08011250	      0.01655598	      0.07513831	      0.18353905	      0.14304975	      0.02987991	      0.14208520	      0.01486038	      0.08753066
      0.16172518	     -6.11954201	    -47.61522331	     25.13950426	    240.90649018	      0.01453943	      0.14252884	      0.01669856	      0.08020515	      0.01651054	      0.07523513	      0.18343943	      0.14298134	      0.02983673	      0.14200858	      0.01480469	      0.08748016
      0.16265411	     -6.16369600	    -47.44894309	     25.36333516	    241.00458200	      0.01448494	      0.14259346	      0.01665580	      0.08029783	      0.01646598	      0.07532357	      0.18334105	      0.14291236	      0.02979369	      0.14193145	      0.01474966	      0.08742967
      0.16358304	     -6.20769341	    -47.27739596	     25.58724952	    241.08414850	      0.01443111	      0.14265819	      0.01661395	      0.08039053	      0.01642230	      0.07541860	      0.18324389	      0.14284281	      0.02975080	      0.14185381	      0.01469529	      0.08737922
      0.16451197	     -6.25153000	    -47.10327185	     25.81123210	    241.15308334	      0.01437794	      0.14272302	      0.01657301	      0.08048323	      0.01637947	      0.07550861	      0.18314792	      0.14277269	      0.02970803	      0.14177566	      0.01464157	      0.08732879
      0.16563969	     -6.30452779	    -46.88531915	     26.08322462	    241.21332187	      0.01431426	      0.14280186	      0.01652451	      0.08059578	      0.01632863	      0.07562504	      0.18303299	      0.14268680	      0.02965630	      0.14168011	      0.01457721	      0.08726761
      0.16652471	     -6.34594571	    -46.71216285	     26.29672038	    241.25119159	      0.01426495	      0.14286383	      0.01648735	      0.08068411	      0.01628959	      0.07570841	      0.18294398	      0.14261882	      0.02961583	      0.14160461	      0.01452735	      0.08721964
      0.16740973	     -6.38720832	    -46.53390676	     26.51024232	    241.27121646	      0.01421620	      0.14292588	      0.01645102	      0.08077242	      0.01625135	      0.07579840	      0.18285641	      0.14255032	      0.02957554	      0.14152866	      0.01447806	      0.08717170
      0.16855981	     -6.44059037	    -46.29837273	     26.78772850	    241.28152690	      0.01415371	      0.14300663	      0.01640517	      0.08088716	      0.01620291	      0.07590973	      0.18274579	      0.14246056	      0.02952356	      0.14142930	      0.01441483	      0.08710945
      0.16948680	     -6.48341851	    -46.10263346	     27.01139107	    241.26895714	      0.01410402	      0.14307181	      0.01636931	      0.08097961	      0.01616489	      0.07600666	      0.18265921	      0.14238759	      0.02948198	      0.14134867	      0.01436454	      0.08705932
      0.17041379	     -6.52606388	    -45.90495577	     27.23503664	    241.24751705	      0.01405493	      0.14313706	      0.01633441	      0.08107203	      0.01612778	      0.07609458	      0.18257489	      0.14231407	      0.02944068	      0.14126757	      0.01431484	      0.08700924
      0.17134079	     -6.56852375	    -45.70170936	     27.45865422	    241.20647693	      0.01400644	      0.14320239	      0.01630047	      0.08116440	      0.01609156	      0.07618952	      0.18249280	      0.14224001	      0.02939965	      0.14118599	      0.01426573	      0.08695921
      0.17226778	     -6.61079367	    -45.49570929	     27.68222774	    241.15411996	      0.01395854	      0.14326778	      0.01626747	      0.08125673	      0.01605622	      0.07627901	      0.18241288	      0.14216541	      0.02935889	      0.14110394	      0.01421720	      0.08690923
      0.17338252	     -6.66136867	    -45.24123698	     27.95100650	    241.06697911	      0.01390171	      0.14334650	      0.01622903	      0.08136768	      0.01601487	      0.07639396	      0.18231961	      0.14207499	      0.02931022	      0.14100466	      0.01415959	      0.08684921
      0.17427763	     -6.70177209	    -45.03456229	     28.16675211	    240.98671733	      0.01385667	      0.14340977	      0.01619911	      0.08145672	      0.01598257	      0.07647797	      0.18224691	      0.14200182	      0.02927142	      0.14092446	      0.01411392	      0.08680107
      0.17517274	     -6.74198834	    -44.82254019	     28.38241810	    240.88763017	      0.01381217	      0.14347309	      0.01617005	      0.08154568	      0.01595106	      0.07656887	      0.18217617	      0.14192817	      0.02923287	      0.14084384	      0.01406876	      0.08675298
      0.17630890	     -6.79275930	    -44.54949535	     28.65602731	    240.74587494	      0.01375642	      0.14355352	      0.01613451	      0.08165851	      0.01591230	      0.07667812	      0.18209023	      0.14183397	      0.02918442	      0.14074091	      0.01401219	      0.08669202
      0.17724136	     -6.83419284	    -44.31934661	     28.88044891	    240.60792827	      0.01371129	      0.14361959	      0.01610649	      0.08175100	      0.01588157	      0.07677537	      0.18202328	      0.14175609	      0.02914513	      0.14065594	      0.01396637	      0.08664207
      0.17817381	     -6.87541039	    -44.08717430	     29.10473628	    240.46065013	      0.01366670	      0.14368569	      0.01607950	      0.08184340	      0.01585178	      0.07686310	      0.18195948	      0.14167768	      0.02910624	      0.14057053	      0.01392109	      0.08659220
      0.17910626	     -6.91640913	    -43.84929806	     29.32887785	    240.29313296	      0.01362267	      0.14375183	      0.01605352	      0.08193570	      0.01582293	      0.07695809	      0.18189878	      0.14159876	      0.02906775	      0.14048469	      0.01387634	      0.08654239
      0.18003871	     -6.95718448	    -43.60859526	     29.55285696	    240.11386645	      0.01357916	      0.14381801	      0.01602855	      0.08202790	      0.01579501	      0.07704742	      0.18184112	      0.14151933	      0.02902967	      0.14039841	      0.01383212	      0.08649266
      0.18116051	     -7.00593935	    -43.31219835	     29.82208544	    239.87350832	      0.01352753	      0.14389765	      0.01599982	      0.08213866	      0.01576263	      0.07716222	      0.18177571	      0.14142310	      0.02898437	      0.14029406	      0.01377962	      0.08643294
      0.18207140	     -7.04528113	    -43.06905781	     30.04048905	    239.66737766	      0.01348615	      0.14396235	      0.01597753	      0.08222847	      0.01573730	      0.07724700	      0.18172571	      0.14134443	      0.02894800	      0.14020889	      0.01373753	      0.08638453
      0.18298228	     -7.08439920	    -42.82047773	     30.25869677	    239.44184611	      0.01344527	      0.14402706	      0.01595616	      0.08231815	      0.01571282	      0.07733881	      0.18167846	      0.14126529	      0.02891200	      0.14012332	      0.01369593	      0.08633620
      0.18412380	     -7.13309953	    -42.50509681	     30.53185358	    239.14309922	      0.01339473	      0.14410817	      0.01593072	      0.08243037	      0.01568336	      0.07744735	      0.18162344	      0.14116546	      0.02886743	      0.14001555	      0.01364446	      0.08627575
      0.18507034	     -7.17320627	    -42.23747362	     30.75808671	    238.87330337	      0.01335339	      0.14417544	      0.01591086	      0.08252324	      0.01566006	      0.07754515	      0.18158214	      0.14108213	      0.02883105	      0.13992574	      0.01360235	      0.08622574
